<?xml version="1.0" encoding="UTF-8" standalone="no"?>
<!-- Copyright 2017 mathsisfun.com -->
<svg xmlns="http://www.w3.org/2000/svg" width="233.5" height="149.4" version="1.1">
<defs>
<marker id="id1" style="overflow:visible;" orient="auto">
<path transform="matrix(-0.4,0,0,-0.4,-4,0)" style="stroke:black; stroke-width:1pt;" d="M 0,0 5,-5 -12.5,0 5,5 Z"/>
</marker>
</defs>
<g transform="translate(-907.231,-1797.95)">
<path style="fill:none; stroke:#d8dadc; stroke-width:0.89; stroke-dasharray:7.1, 0.9;" d="m 907.6,1841.3 h 232.1"/>
<path style="fill:none; stroke:#d8dadc; stroke-width:0.89; stroke-dasharray:7.1, 0.9;" d="m 907.6,1820.1 h 232.1"/>
<path style="fill:none; stroke:#d8dadc; stroke-width:0.89; stroke-dasharray:7.1, 0.9;" d="m 907.6,1799 h 232.1"/>
<path style="fill:none; stroke:#d8dadc; stroke-width:0.89; stroke-dasharray:7.1, 0.9;" d="m 907.6,1946.9 h 232.1"/>
<path style="fill:none; stroke:#d8dadc; stroke-width:0.89; stroke-dasharray:7.1, 0.9;" d="m 907.6,1904.6 h 232.1"/>
<path style="fill:none; stroke:#d8dadc; stroke-width:0.89; stroke-dasharray:7.1, 0.9;" d="m 907.6,1883.5 h 232.1"/>
<path style="fill:none; stroke:#d8dadc; stroke-width:0.89; stroke-dasharray:7.1, 0.9;" d="m 907.6,1862.4 h 232.1"/>
<path style="fill:none; stroke:#d8dadc; stroke-width:0.89; stroke-dasharray:7.1, 0.9;" d="m 908.6,1925.8 h 232.1"/>
<path style="fill:none; stroke:#d8dadc; stroke-width:0.71; stroke-dasharray:5.7, 0.7;" d="M 971,1946.9 V 1798.6"/>
<path style="fill:none; stroke:#d8dadc; stroke-width:0.71; stroke-dasharray:5.7, 0.7;" d="M 949.8,1946.9 V 1798.6"/>
<path style="fill:none; stroke:#d8dadc; stroke-width:0.71; stroke-dasharray:5.7, 0.7;" d="M 928.7,1946.9 V 1798.6"/>
<path style="fill:none; stroke:#d8dadc; stroke-width:0.71; stroke-dasharray:5.7, 0.7;" d="M 907.6,1946.9 V 1798.6"/>
<path style="fill:none; stroke:#d8dadc; stroke-width:0.71; stroke-dasharray:5.7, 0.7;" d="M 1076.6,1946.9 V 1798.6"/>
<path style="fill:none; stroke:#d8dadc; stroke-width:0.71; stroke-dasharray:5.7, 0.7;" d="M 1034.3,1946.9 V 1798.6"/>
<path style="fill:none; stroke:#d8dadc; stroke-width:0.71; stroke-dasharray:5.7, 0.7;" d="M 1013.2,1946.9 V 1798.6"/>
<path style="fill:none; stroke:#d8dadc; stroke-width:0.71; stroke-dasharray:5.7, 0.7;" d="M 992.1,1946.9 V 1798.6"/>
<path style="fill:none; stroke:#d8dadc; stroke-width:0.71; stroke-dasharray:5.7, 0.7;" d="M 1055.4,1946.2 V 1798"/>
<path style="fill:none; stroke:#d8dadc; stroke-width:0.71; stroke-dasharray:5.7, 0.7;" d="M 1139.9,1946.9 V 1798.6"/>
<path style="fill:none; stroke:#d8dadc; stroke-width:0.71; stroke-dasharray:5.7, 0.7;" d="M 1118.7,1946.9 V 1798.6"/>
<path style="fill:none; stroke:#d8dadc; stroke-width:0.71; stroke-dasharray:5.7, 0.7;" d="M 1097.6,1946.9 V 1798.6"/>
</g>
<path style="marker-end:url(#id1); fill:#2e3436; fill-opacity:0.75; stroke:#2e3436; stroke-width:1.13;" d="m 1.2,127.8 h 228.8"/>
<path style="marker-end:url(#id1); fill:#2e3436; fill-opacity:0.75; stroke:#2e3436; stroke-width:1.13;" d="M 21.3,148 V 5.6"/>
<text x="207.6" y="123.5" style="font-family:'Comic Sans MS'; font-size:21.2px; font-style:italic; overflow:visible; fill:black; stroke-width:0.5px;">x</text>
<text x="6.2" y="25.9" style="font-family:'Comic Sans MS'; font-size:21.2px; font-style:italic; overflow:visible; fill:black; stroke-width:0.5px;">y</text>
<text x="30.6" y="109.3" style="font-family:'Comic Sans MS'; font-size:13.7px; overflow:visible; fill:#0197fd; stroke-width:1.1;">f(x)</text>
<path style="overflow:visible; fill:none; stroke:#0197fd; stroke-width:1.89; stroke-linecap:round;" d="m 28.2,119 c 0,0 54,-2.2 85.2,-27 31.2,-24.7 47.7,-58.7 54,-90.2"/>
<text x="181.6" y="99.3" style="font-family:'Comic Sans MS'; text-align:center; text-anchor:middle; font-size:13.7px; overflow:visible; fill:#ef2929; stroke-width:1.1;">Slope Increases</text>
<g transform="matrix(0.194549,-0.358915,-0.358915,-0.194549,653.145,403.864)">
<path style="overflow:visible; fill:#ef2929; stroke-width:2.2;" d="m 32,1463.4 c -14.9,10.2 -28.5,23.5 -34.6,40.9 -1.6,3.8 -2.1,9 -7.3,6.8 -6.5,1.3 -1.6,-4.5 -0.6,-7.6 6.5,-17.6 19.7,-31.9 34.9,-42.5 2.6,0.8 5.1,1.6 7.7,2.4 z"/>
<path style="overflow:visible; fill:#ef2929; stroke-width:2.2;" d="m -12.9,1482.7 c 5.6,11.1 6.4,23.8 5.7,36 -1.9,-3.1 -11.4,3 -5.9,-4 5.2,-7.5 14,-11.3 21.8,-15.6 1.8,1.2 6.9,2.7 6.8,3.8 -7.3,3.5 -15.1,7.1 -20.6,13.3 -0.9,5.3 -11.4,8.7 -10.2,1.2 0.8,-10.8 0.1,-22.1 -5.2,-31.8 2.5,-1 5.1,-1.9 7.6,-2.9 z"/>
</g>
<path style="color:black; overflow:visible; fill:none; stroke:#ef2929; stroke-width:1.51; stroke-dasharray:6, 1.5;" d="m 40.2,125 85.3,-33.5"/>
<path style="color:black; overflow:visible; fill:none; stroke:#ef2929; stroke-width:1.51; stroke-dasharray:6, 1.5;" d="m 171.1,9.2 -38.7,74.4"/>
<g transform="matrix(-0.177909,0.367448,-0.367448,-0.177909,715.564,329.75)">
<path style="overflow:visible; fill:#ef2929; stroke-width:2.2;" d="m 32,1463.4 c -14.9,10.2 -28.5,23.5 -34.6,40.9 -1.6,3.8 -2.1,9 -7.3,6.8 -6.5,1.3 -1.6,-4.5 -0.6,-7.6 6.5,-17.6 19.7,-31.9 34.9,-42.5 2.6,0.8 5.1,1.6 7.7,2.4 z"/>
<path style="overflow:visible; fill:#ef2929; stroke-width:2.2;" d="m -12.9,1482.7 c 5.6,11.1 6.4,23.8 5.7,36 -1.9,-3.1 -11.4,3 -5.9,-4 5.2,-7.5 14,-11.3 21.8,-15.6 1.8,1.2 6.9,2.7 6.8,3.8 -7.3,3.5 -15.1,7.1 -20.6,13.3 -0.9,5.3 -11.4,8.7 -10.2,1.2 0.8,-10.8 0.1,-22.1 -5.2,-31.8 2.5,-1 5.1,-1.9 7.6,-2.9 z"/>
</g>
<text x="71.3" y="28.7" style="font-family:'Comic Sans MS'; text-align:center; text-anchor:middle; font-size:18.1px; color:black; overflow:visible; fill:black; stroke-width:0.5px;">Concave</text>
<text x="71.3" y="46.7" style="font-family:'Comic Sans MS'; text-align:center; text-anchor:middle; font-size:18.1px; color:black; overflow:visible; fill:black; stroke-width:0.5px;">Upward</text>
</svg>
